<svg viewBox="0 0 100 100" xmlns="http://www.w3.org/2000/svg"><path d="M81.671 35.527l-16.722-9.654a1.011 1.011 0 00-1.517.876v5.963c-6.124-.454-11.125.817-14.866 3.819-4.55 3.651-5.638 8.632-6.598 13.025-.781 3.574-1.519 6.95-3.896 9.983-3.381 4.313-9.461 6.904-18.07 7.701a3.5 3.5 0 00.644 6.97c10.604-.981 18.319-4.464 22.935-10.352 3.366-4.293 4.354-8.816 5.227-12.808.849-3.887 1.52-6.957 4.14-9.061 2.406-1.931 5.939-2.677 10.486-2.254v6.321c0 .779.843 1.265 1.517.876l16.722-9.654a1.012 1.012 0 00-.002-1.751z"/><path d="M63.704 39.275c-3.906-.861-9.315-1.342-12.757 1.714-1.963 1.743-2.94 3.57-4.14 9.061-.872 3.991-1.86 8.515-5.227 12.808-4.615 5.888-12.331 9.371-22.935 10.352-.109.01-.219.015-.326.015-.162 0-.318-.023-.474-.045a3.484 3.484 0 002.8 1.03c10.604-.981 18.319-4.464 22.935-10.352 3.366-4.293 4.354-8.816 5.227-12.808.849-3.887 1.52-6.957 4.14-9.061 2.04-1.637 4.896-2.413 8.485-2.357.758-.118 1.515-.237 2.272-.357zm17.967-3.748L64.95 25.873a.987.987 0 00-.501-.134l15.222 8.789a1.012 1.012 0 010 1.752l-16.239 9.375v.403c0 .779.843 1.265 1.517.876L81.67 37.28a1.012 1.012 0 00.001-1.753z"/><path d="M81.671 35.527l-16.722-9.654a1.011 1.011 0 00-1.517.876v5.963c-6.124-.454-11.125.817-14.866 3.819-4.55 3.651-5.638 8.632-6.598 13.025-.781 3.574-1.519 6.95-3.896 9.983-3.381 4.313-9.461 6.904-18.07 7.701a3.5 3.5 0 00.644 6.97c10.604-.981 18.319-4.464 22.935-10.352 3.366-4.293 4.354-8.816 5.227-12.808.849-3.887 1.52-6.957 4.14-9.061 2.406-1.931 5.939-2.677 10.486-2.254v6.321c0 .779.843 1.265 1.517.876l16.722-9.654a1.012 1.012 0 00-.002-1.751z" fill="none" stroke="#000" stroke-miterlimit="10"/><path d="M81.671 67.345l-16.722 9.654a1.011 1.011 0 01-1.517-.876V70.16c-6.124.454-11.125-.817-14.866-3.819-4.55-3.651-5.638-8.632-6.598-13.025-.781-3.574-1.519-6.95-3.896-9.983-3.381-4.313-9.461-6.904-18.07-7.701a3.5 3.5 0 01.644-6.97c10.604.981 18.319 4.464 22.935 10.352 3.366 4.293 4.354 8.816 5.227 12.808.849 3.887 1.52 6.957 4.14 9.061 2.406 1.931 5.939 2.677 10.486 2.254v-6.321c0-.779.843-1.265 1.517-.876l16.722 9.654a1.012 1.012 0 01-.002 1.751z"/><path d="M18.002 34.631c-.052-.005-.098-.022-.149-.029a3.465 3.465 0 002.149 1.029c4.434.411 8.191 1.301 11.26 2.653-3.38-1.923-7.812-3.148-13.26-3.653zm23.579 3.383c3.366 4.293 4.354 8.816 5.227 12.808.849 3.887 1.52 6.957 4.14 9.061.779.625 1.689 1.113 2.7 1.49-.239-.157-.48-.313-.7-.49-2.62-2.104-3.291-5.173-4.14-9.061-.872-3.991-1.86-8.515-5.227-12.808-2.319-2.958-5.422-5.308-9.279-7.04 2.94 1.602 5.377 3.613 7.279 6.04zm22.338 31.263c-4.193.311-10.332-.324-13.428-1.632 3.013 1.776 9.16 2.763 13.428 2.712a10.192 10.192 0 000-1.08z"/><path d="M81.671 65.593l-16.722-9.654a.987.987 0 00-.501-.134l15.222 8.789a1.012 1.012 0 010 1.752L63.432 75.72v.403c0 .779.843 1.265 1.517.876l16.722-9.654a1.012 1.012 0 000-1.752z"/><path d="M81.671 67.345l-16.722 9.654a1.011 1.011 0 01-1.517-.876V70.16c-6.124.454-11.125-.817-14.866-3.819-4.55-3.651-5.638-8.632-6.598-13.025-.781-3.574-1.519-6.95-3.896-9.983-3.381-4.313-9.461-6.904-18.07-7.701a3.5 3.5 0 01.644-6.97c10.604.981 18.319 4.464 22.935 10.352 3.366 4.293 4.354 8.816 5.227 12.808.849 3.887 1.52 6.957 4.14 9.061 2.406 1.931 5.939 2.677 10.486 2.254v-6.321c0-.779.843-1.265 1.517-.876l16.722 9.654a1.012 1.012 0 01-.002 1.751z" fill="none" stroke="#000" stroke-miterlimit="10"/></svg>